<svg id="visual" viewBox="0 0 416 849.4" width="416" height="849.4" xmlns="http://www.w3.org/2000/svg" xmlns:xlink="http://www.w3.org/1999/xlink" version="1.1"><rect x="0" y="0" width="416" height="849.4" fill="#fcfcfc"></rect><defs><linearGradient id="grad1_0" x1="0%" y1="0%" x2="100%" y2="100%"><stop offset="30%" stop-color="#fcfcfc" stop-opacity="1"></stop><stop offset="70%" stop-color="#fcfcfc" stop-opacity="1"></stop></linearGradient></defs><defs><linearGradient id="grad2_0" x1="0%" y1="0%" x2="100%" y2="100%"><stop offset="30%" stop-color="#fcfcfc" stop-opacity="1"></stop><stop offset="70%" stop-color="#fcfcfc" stop-opacity="1"></stop></linearGradient></defs><g transform="translate(416, 0)"><path d="M0 249.6C-51.2 247.4 -102.4 245.3 -124.8 216.2C-147.2 187.1 -140.8 131 -156.8 90.5C-172.7 50 -211.2 25 -249.6 0L0 0Z" fill="#dfdaff"></path></g><g transform="translate(0, 849.4)"><path d="M0 -249.6C44.3 -243.4 88.6 -237.3 124.8 -216.2C161 -195.1 189.3 -159 208.7 -120.5C228.2 -82 238.9 -41 249.6 0L0 0Z" fill="#dfdaff"></path></g></svg>