<svg id="visual" viewBox="0 0 675 900" width="675" height="900" xmlns="http://www.w3.org/2000/svg" xmlns:xlink="http://www.w3.org/1999/xlink" version="1.1"><rect x="0" y="0" width="675" height="900" fill="#fcfcfc"></rect><defs><linearGradient id="grad1_0" x1="0%" y1="0%" x2="100%" y2="100%"><stop offset="30%" stop-color="#fcfcfc" stop-opacity="1"></stop><stop offset="70%" stop-color="#fcfcfc" stop-opacity="1"></stop></linearGradient></defs><defs><linearGradient id="grad2_0" x1="0%" y1="0%" x2="100%" y2="100%"><stop offset="30%" stop-color="#fcfcfc" stop-opacity="1"></stop><stop offset="70%" stop-color="#fcfcfc" stop-opacity="1"></stop></linearGradient></defs><g transform="translate(675, 0)"><path d="M0 253.1C-47.6 248.4 -95.2 243.7 -126.6 219.2C-157.9 194.7 -173 150.3 -191.4 110.5C-209.8 70.7 -231.5 35.3 -253.1 0L0 0Z" fill="#dfdaff"></path></g><g transform="translate(0, 900)"><path d="M0 -253.1C32.7 -226.8 65.3 -200.5 105.5 -182.7C145.7 -164.9 193.4 -155.6 219.2 -126.6C245.1 -97.5 249.1 -48.8 253.1 0L0 0Z" fill="#dfdaff"></path></g></svg>