<svg id="visual" viewBox="0 0 416 837.767" width="416" height="837.767" xmlns="http://www.w3.org/2000/svg" xmlns:xlink="http://www.w3.org/1999/xlink" version="1.1"><rect x="0" y="0" width="416" height="837.767" fill="#fcfcfc"></rect><defs><linearGradient id="grad1_0" x1="0%" y1="0%" x2="100%" y2="100%"><stop offset="30%" stop-color="#fcfcfc" stop-opacity="1"></stop><stop offset="70%" stop-color="#fcfcfc" stop-opacity="1"></stop></linearGradient></defs><defs><linearGradient id="grad2_0" x1="0%" y1="0%" x2="100%" y2="100%"><stop offset="30%" stop-color="#fcfcfc" stop-opacity="1"></stop><stop offset="70%" stop-color="#fcfcfc" stop-opacity="1"></stop></linearGradient></defs><g transform="translate(416, 0)"><path d="M0 249.6C-47.7 245.4 -95.5 241.3 -124.8 216.2C-154.1 191.1 -165 145 -182.7 105.5C-200.5 66 -225 33 -249.6 0L0 0Z" fill="#dfdaff"></path></g><g transform="translate(0, 837.767)"><path d="M0 -249.6C44.5 -243.6 89 -237.5 124.8 -216.2C160.6 -194.8 187.6 -158.1 207 -119.5C226.3 -80.9 238 -40.5 249.6 0L0 0Z" fill="#dfdaff"></path></g></svg>